<mxfile host="65bd71144e">
    <diagram id="pIaEtrtLPv3HG8r1JEND" name="Page-1">
        <mxGraphModel dx="1121" dy="751" grid="1" gridSize="10" guides="1" tooltips="1" connect="1" arrows="1" fold="1" page="1" pageScale="1" pageWidth="850" pageHeight="1100" math="0" shadow="0">
            <root>
                <mxCell id="0"/>
                <mxCell id="1" parent="0"/>
                <mxCell id="2" value="" style="rounded=0;whiteSpace=wrap;html=1;fillColor=#1ba1e2;fontColor=#ffffff;strokeColor=#006EAF;" parent="1" vertex="1">
                    <mxGeometry x="80" y="80" width="400" height="300" as="geometry"/>
                </mxCell>
                <mxCell id="3" value="PI calculator" style="rounded=0;whiteSpace=wrap;html=1;fillColor=#007FFF;fontColor=#ffffff;strokeColor=#001DBC;" parent="1" vertex="1">
                    <mxGeometry x="80" y="80" width="400" height="40" as="geometry"/>
                </mxCell>
                <mxCell id="7" value="image" style="rounded=0;whiteSpace=wrap;html=1;fillColor=#0050ef;fontColor=#ffffff;strokeColor=#001DBC;" parent="1" vertex="1">
                    <mxGeometry x="110" y="180" width="120" height="60" as="geometry"/>
                </mxCell>
                <mxCell id="8" value="Input the value that you want it to be" style="rounded=0;whiteSpace=wrap;html=1;fillColor=#007FFF;" parent="1" vertex="1">
                    <mxGeometry x="100" y="160" width="220" height="10" as="geometry"/>
                </mxCell>
                <mxCell id="11" value="Button" style="rounded=1;whiteSpace=wrap;html=1;fillColor=#d80073;fontColor=#ffffff;strokeColor=#A50040;" parent="1" vertex="1">
                    <mxGeometry x="110" y="280" width="70" height="20" as="geometry"/>
                </mxCell>
                <mxCell id="12" value="This is a calculator about PI" style="rounded=1;whiteSpace=wrap;html=1;fillColor=#007FFF;" parent="1" vertex="1">
                    <mxGeometry x="100" y="140" width="180" height="10" as="geometry"/>
                </mxCell>
                <mxCell id="14" value="text" style="rounded=0;whiteSpace=wrap;html=1;fillColor=#0050ef;fontColor=#ffffff;strokeColor=#001DBC;" vertex="1" parent="1">
                    <mxGeometry x="110" y="260" width="70" height="10" as="geometry"/>
                </mxCell>
            </root>
        </mxGraphModel>
    </diagram>
</mxfile>